%
M48
M72
T01C0.0122
T02C0.0200
T03C0.0256
T04C0.0394
%
T01
X6838Y6230
X7025Y6805
X7713Y6618
X8525Y6618
X9338Y6618
X10150Y6618
X10963Y6618
X11775Y6618
X12900Y6555
X13400Y6618
X13900Y6855
X15588Y6605
X17400Y6230
X17588Y7230
X17775Y8680
X18102Y8743
X17775Y9042
X18650Y8555
X19713Y8805
X20775Y8868
X20650Y8180
X21463Y7618
X19713Y7730
X20525Y6230
X16650Y8667
X16525Y9055
X16213Y9680
X15775Y9855
X15713Y10180
X16088Y10355
X16463Y10805
X16025Y11118
X15775Y11368
X15963Y11618
X15775Y11868
X15150Y11930
X15213Y12480
X16025Y13167
X16900Y13355
X17400Y12868
X18338Y12680
X18775Y12493
X19088Y12480
X19650Y12555
X20275Y12743
X21025Y12118
X21150Y11618
X20525Y11230
X19775Y10430
X18963Y10055
X18525Y9917
X17838Y9868
X17088Y10493
X18088Y10805
X18275Y11055
X18025Y11305
X18713Y11430
X19400Y11993
X17275Y11743
X16900Y11743
X16900Y11368
X17275Y11368
X16338Y12230
X14713Y10930
X14400Y10930
X14088Y10930
X13025Y10930
X13025Y11305
X13025Y10555
X13900Y10180
X14275Y10055
X14088Y9430
X13650Y9055
X13838Y8805
X13400Y9305
X14650Y8368
X14963Y8792
X15213Y10493
X12713Y12180
X12525Y12430
X12213Y12368
X11900Y12305
X11338Y11980
X10963Y12105
X10588Y12105
X10213Y12105
X9838Y12105
X9463Y12105
X9088Y12105
X8713Y12105
X8213Y12355
X7838Y12105
X6963Y12230
X7150Y13417
X9650Y12605
X11088Y12605
X12400Y13105
X13838Y12730
X14713Y14042
X15338Y14667
X16713Y14730
X17650Y14430
X17900Y14243
X20213Y13555
X21650Y10605
X12025Y8355
X11713Y8292
X10213Y10118
X10713Y10180
X9838Y10480
X9463Y10480
X9088Y10480
X8713Y10480
X8963Y10105
X9588Y10105
X8213Y10230
X7775Y10480
X7338Y10480
X7525Y7980
X7525Y7480
X8338Y7930
X8900Y7993
T02
X18968Y14384
X18968Y14884
X19468Y14884
X19968Y14884
X20468Y14884
X20968Y14884
X20968Y14384
X20468Y14384
X19968Y14384
X19468Y14384
T03
X17940Y6943
X17940Y6443
X18440Y6443
X18940Y6443
X19440Y6443
X19940Y6443
X19940Y6943
X19440Y6943
X18940Y6943
X18440Y6943
T04
X22150Y6555
X22150Y7555
X22150Y8555
X22150Y10993
X22150Y11993
X22150Y12993
X22150Y13993
X22150Y14993
M30
