G75*
%MOIN*%
%OFA0B0*%
%FSLAX25Y25*%
%IPPOS*%
%LPD*%
%AMOC8*
5,1,8,0,0,1.08239X$1,22.5*
%
%ADD10C,0.00000*%
%ADD11C,0.04337*%
%ADD12C,0.07000*%
%ADD13C,0.04559*%
%ADD14C,0.04600*%
%ADD15C,0.00691*%
%ADD16C,0.00320*%
%ADD17C,0.00261*%
D10*
X0050250Y0057425D02*
X0050250Y0155850D01*
X0227415Y0155850D01*
X0227415Y0057425D01*
X0050250Y0057425D01*
D11*
X0189679Y0143837D03*
X0194679Y0143837D03*
X0199679Y0143837D03*
X0204679Y0143837D03*
X0209679Y0143837D03*
X0209679Y0148837D03*
X0204679Y0148837D03*
X0199679Y0148837D03*
X0194679Y0148837D03*
X0189679Y0148837D03*
D12*
X0221500Y0149925D03*
X0221500Y0139925D03*
X0221500Y0129925D03*
X0221500Y0119925D03*
X0221500Y0109925D03*
X0221500Y0085550D03*
X0221500Y0075550D03*
X0221500Y0065550D03*
D13*
X0184399Y0064433D03*
X0184399Y0069433D03*
X0179399Y0069433D03*
X0179399Y0064433D03*
D14*
X0189399Y0064433D03*
X0194399Y0064433D03*
X0199399Y0064433D03*
X0199399Y0069433D03*
X0194399Y0069433D03*
X0189399Y0069433D03*
D15*
X0194170Y0090011D02*
X0194170Y0094563D01*
X0194170Y0090011D02*
X0192098Y0090011D01*
X0192098Y0094563D01*
X0194170Y0094563D01*
X0194170Y0090701D02*
X0192098Y0090701D01*
X0192098Y0091391D02*
X0194170Y0091391D01*
X0194170Y0092081D02*
X0192098Y0092081D01*
X0192098Y0092771D02*
X0194170Y0092771D01*
X0194170Y0093461D02*
X0192098Y0093461D01*
X0192098Y0094151D02*
X0194170Y0094151D01*
X0198806Y0094563D02*
X0198806Y0090011D01*
X0196734Y0090011D01*
X0196734Y0094563D01*
X0198806Y0094563D01*
X0198806Y0090701D02*
X0196734Y0090701D01*
X0196734Y0091391D02*
X0198806Y0091391D01*
X0198806Y0092081D02*
X0196734Y0092081D01*
X0196734Y0092771D02*
X0198806Y0092771D01*
X0198806Y0093461D02*
X0196734Y0093461D01*
X0196734Y0094151D02*
X0198806Y0094151D01*
X0206286Y0094563D02*
X0206286Y0090011D01*
X0204214Y0090011D01*
X0204214Y0094563D01*
X0206286Y0094563D01*
X0206286Y0090701D02*
X0204214Y0090701D01*
X0204214Y0091391D02*
X0206286Y0091391D01*
X0206286Y0092081D02*
X0204214Y0092081D01*
X0204214Y0092771D02*
X0206286Y0092771D01*
X0206286Y0093461D02*
X0204214Y0093461D01*
X0204214Y0094151D02*
X0206286Y0094151D01*
X0211547Y0094563D02*
X0211547Y0090011D01*
X0209475Y0090011D01*
X0209475Y0094563D01*
X0211547Y0094563D01*
X0211547Y0090701D02*
X0209475Y0090701D01*
X0209475Y0091391D02*
X0211547Y0091391D01*
X0211547Y0092081D02*
X0209475Y0092081D01*
X0209475Y0092771D02*
X0211547Y0092771D01*
X0211547Y0093461D02*
X0209475Y0093461D01*
X0209475Y0094151D02*
X0211547Y0094151D01*
X0219027Y0094563D02*
X0219027Y0090011D01*
X0216955Y0090011D01*
X0216955Y0094563D01*
X0219027Y0094563D01*
X0219027Y0090701D02*
X0216955Y0090701D01*
X0216955Y0091391D02*
X0219027Y0091391D01*
X0219027Y0092081D02*
X0216955Y0092081D01*
X0216955Y0092771D02*
X0219027Y0092771D01*
X0219027Y0093461D02*
X0216955Y0093461D01*
X0216955Y0094151D02*
X0219027Y0094151D01*
X0215287Y0098358D02*
X0215287Y0102910D01*
X0215287Y0098358D02*
X0213215Y0098358D01*
X0213215Y0102910D01*
X0215287Y0102910D01*
X0215287Y0099048D02*
X0213215Y0099048D01*
X0213215Y0099738D02*
X0215287Y0099738D01*
X0215287Y0100428D02*
X0213215Y0100428D01*
X0213215Y0101118D02*
X0215287Y0101118D01*
X0215287Y0101808D02*
X0213215Y0101808D01*
X0213215Y0102498D02*
X0215287Y0102498D01*
X0202546Y0102910D02*
X0202546Y0098358D01*
X0200474Y0098358D01*
X0200474Y0102910D01*
X0202546Y0102910D01*
X0202546Y0099048D02*
X0200474Y0099048D01*
X0200474Y0099738D02*
X0202546Y0099738D01*
X0202546Y0100428D02*
X0200474Y0100428D01*
X0200474Y0101118D02*
X0202546Y0101118D01*
X0202546Y0101808D02*
X0200474Y0101808D01*
X0200474Y0102498D02*
X0202546Y0102498D01*
X0190430Y0102910D02*
X0190430Y0098358D01*
X0188358Y0098358D01*
X0188358Y0102910D01*
X0190430Y0102910D01*
X0190430Y0099048D02*
X0188358Y0099048D01*
X0188358Y0099738D02*
X0190430Y0099738D01*
X0190430Y0100428D02*
X0188358Y0100428D01*
X0188358Y0101118D02*
X0190430Y0101118D01*
X0190430Y0101808D02*
X0188358Y0101808D01*
X0188358Y0102498D02*
X0190430Y0102498D01*
X0178314Y0102910D02*
X0178314Y0098358D01*
X0176242Y0098358D01*
X0176242Y0102910D01*
X0178314Y0102910D01*
X0178314Y0099048D02*
X0176242Y0099048D01*
X0176242Y0099738D02*
X0178314Y0099738D01*
X0178314Y0100428D02*
X0176242Y0100428D01*
X0176242Y0101118D02*
X0178314Y0101118D01*
X0178314Y0101808D02*
X0176242Y0101808D01*
X0176242Y0102498D02*
X0178314Y0102498D01*
X0166197Y0102885D02*
X0166197Y0098333D01*
X0164125Y0098333D01*
X0164125Y0102885D01*
X0166197Y0102885D01*
X0166197Y0099023D02*
X0164125Y0099023D01*
X0164125Y0099713D02*
X0166197Y0099713D01*
X0166197Y0100403D02*
X0164125Y0100403D01*
X0164125Y0101093D02*
X0166197Y0101093D01*
X0166197Y0101783D02*
X0164125Y0101783D01*
X0164125Y0102473D02*
X0166197Y0102473D01*
X0169938Y0094539D02*
X0169938Y0089987D01*
X0167866Y0089987D01*
X0167866Y0094539D01*
X0169938Y0094539D01*
X0169938Y0090677D02*
X0167866Y0090677D01*
X0167866Y0091367D02*
X0169938Y0091367D01*
X0169938Y0092057D02*
X0167866Y0092057D01*
X0167866Y0092747D02*
X0169938Y0092747D01*
X0169938Y0093437D02*
X0167866Y0093437D01*
X0167866Y0094127D02*
X0169938Y0094127D01*
X0174573Y0094563D02*
X0174573Y0090011D01*
X0172501Y0090011D01*
X0172501Y0094563D01*
X0174573Y0094563D01*
X0174573Y0090701D02*
X0172501Y0090701D01*
X0172501Y0091391D02*
X0174573Y0091391D01*
X0174573Y0092081D02*
X0172501Y0092081D01*
X0172501Y0092771D02*
X0174573Y0092771D01*
X0174573Y0093461D02*
X0172501Y0093461D01*
X0172501Y0094151D02*
X0174573Y0094151D01*
X0182054Y0094563D02*
X0182054Y0090011D01*
X0179982Y0090011D01*
X0179982Y0094563D01*
X0182054Y0094563D01*
X0182054Y0090701D02*
X0179982Y0090701D01*
X0179982Y0091391D02*
X0182054Y0091391D01*
X0182054Y0092081D02*
X0179982Y0092081D01*
X0179982Y0092771D02*
X0182054Y0092771D01*
X0182054Y0093461D02*
X0179982Y0093461D01*
X0179982Y0094151D02*
X0182054Y0094151D01*
X0186690Y0094563D02*
X0186690Y0090011D01*
X0184618Y0090011D01*
X0184618Y0094563D01*
X0186690Y0094563D01*
X0186690Y0090701D02*
X0184618Y0090701D01*
X0184618Y0091391D02*
X0186690Y0091391D01*
X0186690Y0092081D02*
X0184618Y0092081D01*
X0184618Y0092771D02*
X0186690Y0092771D01*
X0186690Y0093461D02*
X0184618Y0093461D01*
X0184618Y0094151D02*
X0186690Y0094151D01*
X0162457Y0094539D02*
X0162457Y0089987D01*
X0160385Y0089987D01*
X0160385Y0094539D01*
X0162457Y0094539D01*
X0162457Y0090677D02*
X0160385Y0090677D01*
X0160385Y0091367D02*
X0162457Y0091367D01*
X0162457Y0092057D02*
X0160385Y0092057D01*
X0160385Y0092747D02*
X0162457Y0092747D01*
X0162457Y0093437D02*
X0160385Y0093437D01*
X0160385Y0094127D02*
X0162457Y0094127D01*
X0157821Y0094539D02*
X0157821Y0089987D01*
X0155749Y0089987D01*
X0155749Y0094539D01*
X0157821Y0094539D01*
X0157821Y0090677D02*
X0155749Y0090677D01*
X0155749Y0091367D02*
X0157821Y0091367D01*
X0157821Y0092057D02*
X0155749Y0092057D01*
X0155749Y0092747D02*
X0157821Y0092747D01*
X0157821Y0093437D02*
X0155749Y0093437D01*
X0155749Y0094127D02*
X0157821Y0094127D01*
X0154081Y0098333D02*
X0154081Y0102885D01*
X0154081Y0098333D02*
X0152009Y0098333D01*
X0152009Y0102885D01*
X0154081Y0102885D01*
X0154081Y0099023D02*
X0152009Y0099023D01*
X0152009Y0099713D02*
X0154081Y0099713D01*
X0154081Y0100403D02*
X0152009Y0100403D01*
X0152009Y0101093D02*
X0154081Y0101093D01*
X0154081Y0101783D02*
X0152009Y0101783D01*
X0152009Y0102473D02*
X0154081Y0102473D01*
X0150341Y0094539D02*
X0150341Y0089987D01*
X0148269Y0089987D01*
X0148269Y0094539D01*
X0150341Y0094539D01*
X0150341Y0090677D02*
X0148269Y0090677D01*
X0148269Y0091367D02*
X0150341Y0091367D01*
X0150341Y0092057D02*
X0148269Y0092057D01*
X0148269Y0092747D02*
X0150341Y0092747D01*
X0150341Y0093437D02*
X0148269Y0093437D01*
X0148269Y0094127D02*
X0150341Y0094127D01*
D16*
X0174944Y0082711D02*
X0174944Y0079915D01*
X0174944Y0082711D02*
X0176756Y0082711D01*
X0176756Y0079915D01*
X0174944Y0079915D01*
X0174944Y0080234D02*
X0176756Y0080234D01*
X0176756Y0080553D02*
X0174944Y0080553D01*
X0174944Y0080872D02*
X0176756Y0080872D01*
X0176756Y0081191D02*
X0174944Y0081191D01*
X0174944Y0081510D02*
X0176756Y0081510D01*
X0176756Y0081829D02*
X0174944Y0081829D01*
X0174944Y0082148D02*
X0176756Y0082148D01*
X0176756Y0082467D02*
X0174944Y0082467D01*
X0181244Y0082711D02*
X0181244Y0079915D01*
X0181244Y0082711D02*
X0183056Y0082711D01*
X0183056Y0079915D01*
X0181244Y0079915D01*
X0181244Y0080234D02*
X0183056Y0080234D01*
X0183056Y0080553D02*
X0181244Y0080553D01*
X0181244Y0080872D02*
X0183056Y0080872D01*
X0183056Y0081191D02*
X0181244Y0081191D01*
X0181244Y0081510D02*
X0183056Y0081510D01*
X0183056Y0081829D02*
X0181244Y0081829D01*
X0181244Y0082148D02*
X0183056Y0082148D01*
X0183056Y0082467D02*
X0181244Y0082467D01*
X0186194Y0082711D02*
X0186194Y0079915D01*
X0186194Y0082711D02*
X0188006Y0082711D01*
X0188006Y0079915D01*
X0186194Y0079915D01*
X0186194Y0080234D02*
X0188006Y0080234D01*
X0188006Y0080553D02*
X0186194Y0080553D01*
X0186194Y0080872D02*
X0188006Y0080872D01*
X0188006Y0081191D02*
X0186194Y0081191D01*
X0186194Y0081510D02*
X0188006Y0081510D01*
X0188006Y0081829D02*
X0186194Y0081829D01*
X0186194Y0082148D02*
X0188006Y0082148D01*
X0188006Y0082467D02*
X0186194Y0082467D01*
X0192494Y0082711D02*
X0192494Y0079915D01*
X0192494Y0082711D02*
X0194306Y0082711D01*
X0194306Y0079915D01*
X0192494Y0079915D01*
X0192494Y0080234D02*
X0194306Y0080234D01*
X0194306Y0080553D02*
X0192494Y0080553D01*
X0192494Y0080872D02*
X0194306Y0080872D01*
X0194306Y0081191D02*
X0192494Y0081191D01*
X0192494Y0081510D02*
X0194306Y0081510D01*
X0194306Y0081829D02*
X0192494Y0081829D01*
X0192494Y0082148D02*
X0194306Y0082148D01*
X0194306Y0082467D02*
X0192494Y0082467D01*
X0194306Y0077435D02*
X0194306Y0074639D01*
X0192494Y0074639D01*
X0192494Y0077435D01*
X0194306Y0077435D01*
X0194306Y0074958D02*
X0192494Y0074958D01*
X0192494Y0075277D02*
X0194306Y0075277D01*
X0194306Y0075596D02*
X0192494Y0075596D01*
X0192494Y0075915D02*
X0194306Y0075915D01*
X0194306Y0076234D02*
X0192494Y0076234D01*
X0192494Y0076553D02*
X0194306Y0076553D01*
X0194306Y0076872D02*
X0192494Y0076872D01*
X0192494Y0077191D02*
X0194306Y0077191D01*
X0188006Y0077435D02*
X0188006Y0074639D01*
X0186194Y0074639D01*
X0186194Y0077435D01*
X0188006Y0077435D01*
X0188006Y0074958D02*
X0186194Y0074958D01*
X0186194Y0075277D02*
X0188006Y0075277D01*
X0188006Y0075596D02*
X0186194Y0075596D01*
X0186194Y0075915D02*
X0188006Y0075915D01*
X0188006Y0076234D02*
X0186194Y0076234D01*
X0186194Y0076553D02*
X0188006Y0076553D01*
X0188006Y0076872D02*
X0186194Y0076872D01*
X0186194Y0077191D02*
X0188006Y0077191D01*
X0183056Y0077435D02*
X0183056Y0074639D01*
X0181244Y0074639D01*
X0181244Y0077435D01*
X0183056Y0077435D01*
X0183056Y0074958D02*
X0181244Y0074958D01*
X0181244Y0075277D02*
X0183056Y0075277D01*
X0183056Y0075596D02*
X0181244Y0075596D01*
X0181244Y0075915D02*
X0183056Y0075915D01*
X0183056Y0076234D02*
X0181244Y0076234D01*
X0181244Y0076553D02*
X0183056Y0076553D01*
X0183056Y0076872D02*
X0181244Y0076872D01*
X0181244Y0077191D02*
X0183056Y0077191D01*
X0176756Y0077435D02*
X0176756Y0074639D01*
X0174944Y0074639D01*
X0174944Y0077435D01*
X0176756Y0077435D01*
X0176756Y0074958D02*
X0174944Y0074958D01*
X0174944Y0075277D02*
X0176756Y0075277D01*
X0176756Y0075596D02*
X0174944Y0075596D01*
X0174944Y0075915D02*
X0176756Y0075915D01*
X0176756Y0076234D02*
X0174944Y0076234D01*
X0174944Y0076553D02*
X0176756Y0076553D01*
X0176756Y0076872D02*
X0174944Y0076872D01*
X0174944Y0077191D02*
X0176756Y0077191D01*
D17*
X0178755Y0077465D02*
X0178755Y0074609D01*
X0177277Y0074609D01*
X0177277Y0077465D01*
X0178755Y0077465D01*
X0178755Y0074869D02*
X0177277Y0074869D01*
X0177277Y0075129D02*
X0178755Y0075129D01*
X0178755Y0075389D02*
X0177277Y0075389D01*
X0177277Y0075649D02*
X0178755Y0075649D01*
X0178755Y0075909D02*
X0177277Y0075909D01*
X0177277Y0076169D02*
X0178755Y0076169D01*
X0178755Y0076429D02*
X0177277Y0076429D01*
X0177277Y0076689D02*
X0178755Y0076689D01*
X0178755Y0076949D02*
X0177277Y0076949D01*
X0177277Y0077209D02*
X0178755Y0077209D01*
X0180723Y0077465D02*
X0180723Y0074609D01*
X0179245Y0074609D01*
X0179245Y0077465D01*
X0180723Y0077465D01*
X0180723Y0074869D02*
X0179245Y0074869D01*
X0179245Y0075129D02*
X0180723Y0075129D01*
X0180723Y0075389D02*
X0179245Y0075389D01*
X0179245Y0075649D02*
X0180723Y0075649D01*
X0180723Y0075909D02*
X0179245Y0075909D01*
X0179245Y0076169D02*
X0180723Y0076169D01*
X0180723Y0076429D02*
X0179245Y0076429D01*
X0179245Y0076689D02*
X0180723Y0076689D01*
X0180723Y0076949D02*
X0179245Y0076949D01*
X0179245Y0077209D02*
X0180723Y0077209D01*
X0179245Y0079885D02*
X0179245Y0082741D01*
X0180723Y0082741D01*
X0180723Y0079885D01*
X0179245Y0079885D01*
X0179245Y0080145D02*
X0180723Y0080145D01*
X0180723Y0080405D02*
X0179245Y0080405D01*
X0179245Y0080665D02*
X0180723Y0080665D01*
X0180723Y0080925D02*
X0179245Y0080925D01*
X0179245Y0081185D02*
X0180723Y0081185D01*
X0180723Y0081445D02*
X0179245Y0081445D01*
X0179245Y0081705D02*
X0180723Y0081705D01*
X0180723Y0081965D02*
X0179245Y0081965D01*
X0179245Y0082225D02*
X0180723Y0082225D01*
X0180723Y0082485D02*
X0179245Y0082485D01*
X0177277Y0082741D02*
X0177277Y0079885D01*
X0177277Y0082741D02*
X0178755Y0082741D01*
X0178755Y0079885D01*
X0177277Y0079885D01*
X0177277Y0080145D02*
X0178755Y0080145D01*
X0178755Y0080405D02*
X0177277Y0080405D01*
X0177277Y0080665D02*
X0178755Y0080665D01*
X0178755Y0080925D02*
X0177277Y0080925D01*
X0177277Y0081185D02*
X0178755Y0081185D01*
X0178755Y0081445D02*
X0177277Y0081445D01*
X0177277Y0081705D02*
X0178755Y0081705D01*
X0178755Y0081965D02*
X0177277Y0081965D01*
X0177277Y0082225D02*
X0178755Y0082225D01*
X0178755Y0082485D02*
X0177277Y0082485D01*
X0188527Y0082741D02*
X0188527Y0079885D01*
X0188527Y0082741D02*
X0190005Y0082741D01*
X0190005Y0079885D01*
X0188527Y0079885D01*
X0188527Y0080145D02*
X0190005Y0080145D01*
X0190005Y0080405D02*
X0188527Y0080405D01*
X0188527Y0080665D02*
X0190005Y0080665D01*
X0190005Y0080925D02*
X0188527Y0080925D01*
X0188527Y0081185D02*
X0190005Y0081185D01*
X0190005Y0081445D02*
X0188527Y0081445D01*
X0188527Y0081705D02*
X0190005Y0081705D01*
X0190005Y0081965D02*
X0188527Y0081965D01*
X0188527Y0082225D02*
X0190005Y0082225D01*
X0190005Y0082485D02*
X0188527Y0082485D01*
X0190495Y0082741D02*
X0190495Y0079885D01*
X0190495Y0082741D02*
X0191973Y0082741D01*
X0191973Y0079885D01*
X0190495Y0079885D01*
X0190495Y0080145D02*
X0191973Y0080145D01*
X0191973Y0080405D02*
X0190495Y0080405D01*
X0190495Y0080665D02*
X0191973Y0080665D01*
X0191973Y0080925D02*
X0190495Y0080925D01*
X0190495Y0081185D02*
X0191973Y0081185D01*
X0191973Y0081445D02*
X0190495Y0081445D01*
X0190495Y0081705D02*
X0191973Y0081705D01*
X0191973Y0081965D02*
X0190495Y0081965D01*
X0190495Y0082225D02*
X0191973Y0082225D01*
X0191973Y0082485D02*
X0190495Y0082485D01*
X0191973Y0077465D02*
X0191973Y0074609D01*
X0190495Y0074609D01*
X0190495Y0077465D01*
X0191973Y0077465D01*
X0191973Y0074869D02*
X0190495Y0074869D01*
X0190495Y0075129D02*
X0191973Y0075129D01*
X0191973Y0075389D02*
X0190495Y0075389D01*
X0190495Y0075649D02*
X0191973Y0075649D01*
X0191973Y0075909D02*
X0190495Y0075909D01*
X0190495Y0076169D02*
X0191973Y0076169D01*
X0191973Y0076429D02*
X0190495Y0076429D01*
X0190495Y0076689D02*
X0191973Y0076689D01*
X0191973Y0076949D02*
X0190495Y0076949D01*
X0190495Y0077209D02*
X0191973Y0077209D01*
X0190005Y0077465D02*
X0190005Y0074609D01*
X0188527Y0074609D01*
X0188527Y0077465D01*
X0190005Y0077465D01*
X0190005Y0074869D02*
X0188527Y0074869D01*
X0188527Y0075129D02*
X0190005Y0075129D01*
X0190005Y0075389D02*
X0188527Y0075389D01*
X0188527Y0075649D02*
X0190005Y0075649D01*
X0190005Y0075909D02*
X0188527Y0075909D01*
X0188527Y0076169D02*
X0190005Y0076169D01*
X0190005Y0076429D02*
X0188527Y0076429D01*
X0188527Y0076689D02*
X0190005Y0076689D01*
X0190005Y0076949D02*
X0188527Y0076949D01*
X0188527Y0077209D02*
X0190005Y0077209D01*
M02*
